<svg xmlns="http://www.w3.org/2000/svg" width="1280" height="640" viewBox="0 0 1280 640" role="img">
<style>.s{font-family:-apple-system, BlinkMacSystemFont, 'SF Pro Text', 'Segoe UI', 'Helvetica Neue', Helvetica, Arial, sans-serif}.r{font-family:ui-serif, 'New York', 'Iowan Old Style', Charter, Georgia, 'Times New Roman', serif}.m{font-family:ui-monospace, 'SF Mono', SFMono-Regular, Menlo, Consolas, monospace}.p{white-space:pre}</style>
<defs>
  <linearGradient id="teal" x1="0.25" y1="0.07" x2="0.75" y2="0.93">
    <stop offset="0" stop-color="#173333"/><stop offset="1" stop-color="#337570"/>
  </linearGradient>
  <filter id="soft" x="-20%" y="-20%" width="140%" height="160%">
    <feDropShadow dx="0" dy="6" stdDeviation="10" flood-color="#000" flood-opacity="0.07"/>
  </filter>
  <filter id="pillshadow" x="-30%" y="-60%" width="160%" height="260%">
    <feDropShadow dx="0" dy="4" stdDeviation="7" flood-color="#000" flood-opacity="0.28"/>
  </filter>
  <linearGradient id="bg" x1="0" y1="0" x2="1" y2="1">
    <stop offset="0" stop-color="#0E2221"/><stop offset="1" stop-color="#1F4B47"/>
  </linearGradient>
  <radialGradient id="glow" cx="0.5" cy="0.5" r="0.5">
    <stop offset="0" stop-color="#8FD3CB" stop-opacity="0.16"/><stop offset="1" stop-color="#8FD3CB" stop-opacity="0"/>
  </radialGradient>
</defs>
<rect width="1280" height="640" fill="url(#bg)"/>
<circle cx="936" cy="330" r="430" fill="url(#glow)"/>
<g filter="url(#soft)"><g transform="translate(84 110)">
<rect width="80" height="80" rx="18" fill="url(#teal)"/>
<rect x="0.3" y="0.3" width="79.4" height="79.4" rx="18" fill="none" stroke="#fff" stroke-opacity="0.12" stroke-width="1"/>
<rect x="11.8" y="32.8" width="5" height="14.4" rx="2.5" fill="#fff"/>
<rect x="20.4" y="26.4" width="5" height="27.2" rx="2.5" fill="#fff"/>
<rect x="29" y="19.2" width="5" height="41.6" rx="2.5" fill="#fff"/>
<rect x="37.5" y="26.4" width="5" height="27.2" rx="2.5" fill="#fff"/>
<rect x="46.1" y="30.4" width="5" height="19.2" rx="2.5" fill="#fff"/>
<rect x="54.6" y="23.2" width="5" height="33.6" rx="2.5" fill="#fff"/>
<rect x="63.2" y="32" width="5" height="16" rx="2.5" fill="#fff"/>
</g></g>
<text x="184" y="166" class="s" font-size="46" font-weight="600" letter-spacing="-0.5" fill="#fff">VoiceParty</text>
<text x="84" y="282" class="r" font-size="52" fill="#fff">Hold a key, talk,</text>
<text x="84" y="344" class="r" font-size="52" fill="#fff">and clean text appears</text>
<text x="84" y="406" class="r" font-size="52" fill="#fff">where you type.</text>
<text x="86" y="468" class="s" font-size="21" fill="#fff" fill-opacity="0.72">Private dictation for macOS. Speech recognition</text>
<text x="86" y="498" class="s" font-size="21" fill="#fff" fill-opacity="0.72">and cleanup run on your Mac.</text>
<rect x="84" y="532" width="182" height="38" rx="19" fill="#fff" fill-opacity="0.08" stroke="#fff" stroke-opacity="0.22"/>
<text x="175" y="557" text-anchor="middle" class="s" font-size="17" font-weight="500" fill="#fff" fill-opacity="0.9">Free &amp; open source</text>
<rect x="278" y="532" width="232" height="38" rx="19" fill="#fff" fill-opacity="0.08" stroke="#fff" stroke-opacity="0.22"/>
<text x="394" y="557" text-anchor="middle" class="s" font-size="17" font-weight="500" fill="#fff" fill-opacity="0.9">macOS 26+ · Apple silicon</text>
<rect x="522" y="532" width="113" height="38" rx="19" fill="#fff" fill-opacity="0.08" stroke="#fff" stroke-opacity="0.22"/>
<text x="578.5" y="557" text-anchor="middle" class="s" font-size="17" font-weight="500" fill="#fff" fill-opacity="0.9">On-device</text>
<rect x="676" y="96" width="520" height="142" rx="18" fill="#FDFDFC" filter="url(#soft)"/><rect x="676.5" y="96.5" width="519" height="141" rx="17.5" fill="none" stroke="#000000" stroke-opacity="0.08"/>
<g transform="translate(704 120) scale(0.95)" fill="none" stroke="#2F6965" stroke-width="1.8" stroke-linecap="round"><rect x="4.5" y="0" width="7" height="11" rx="3.5" fill="#2F6965" stroke="none"/><path d="M1.5 7.5 A6.5 6.5 0 0 0 14.5 7.5"/><path d="M8 14 V16.5"/></g>
<text x="728" y="134" class="s" font-size="13" font-weight="600" letter-spacing="1.4" fill="#2F6965">YOU SAY</text>
<text x="704" y="176" class="s p" xml:space="preserve" font-size="23" font-weight="400" fill="#6F6B65"><tspan fill="#B4640F" text-decoration="line-through">um so</tspan> i think we should, <tspan fill="#B4640F" text-decoration="line-through">uh,</tspan> meet at <tspan fill="#B4640F" text-decoration="line-through">5</tspan></text>
<text x="704" y="210" class="s p" xml:space="preserve" font-size="23" font-weight="400" fill="#6F6B65"><tspan fill="#B4640F" text-decoration="line-through">actually no</tspan> 6 if that works</text>
<path d="M936 246 V274" stroke="#9CC9C3" stroke-width="2" stroke-dasharray="2 6" stroke-linecap="round"/>
<g filter="url(#pillshadow)"><rect x="849.6" y="282" width="172.8" height="60" rx="30" fill="#000" fill-opacity="0.94"/></g><rect x="850.6" y="283" width="170.8" height="58" rx="29" fill="none" stroke="#fff" stroke-opacity="0.22" stroke-width="2"/><rect x="887.6" y="305.9" width="4.8" height="12.2" rx="2.4" fill="#fff"/>
<rect x="896.8" y="307.8" width="4.8" height="8.5" rx="2.4" fill="#fff"/>
<rect x="906" y="300.5" width="4.8" height="23" rx="2.4" fill="#fff"/>
<rect x="915.2" y="300.7" width="4.8" height="22.6" rx="2.4" fill="#fff"/>
<rect x="924.4" y="307.7" width="4.8" height="8.6" rx="2.4" fill="#fff"/>
<rect x="933.6" y="299.5" width="4.8" height="24.9" rx="2.4" fill="#fff"/>
<rect x="942.8" y="297" width="4.8" height="29.9" rx="2.4" fill="#fff"/>
<rect x="952" y="306.7" width="4.8" height="10.5" rx="2.4" fill="#fff"/>
<rect x="961.2" y="305.2" width="4.8" height="13.7" rx="2.4" fill="#fff"/>
<rect x="970.4" y="300.9" width="4.8" height="22.2" rx="2.4" fill="#fff"/>
<rect x="979.6" y="306.3" width="4.8" height="11.4" rx="2.4" fill="#fff"/>
<rect x="734" y="287.5" width="62" height="50" rx="9" fill="#000000" fill-opacity="0.17600000000000002"/><rect x="734" y="286" width="62" height="50" rx="9" fill="#FDFDFC" stroke="#000000" stroke-opacity="0.14400000000000002"/><text x="765" y="318.9" text-anchor="middle" class="s" font-size="22" font-weight="500" fill="#1F1E1C">fn</text>
<text x="765" y="362" text-anchor="middle" class="s" font-size="13" font-weight="600" letter-spacing="1.2" fill="#9CC9C3">HOLD</text>
<path d="M936 350 V378" stroke="#9CC9C3" stroke-width="2" stroke-dasharray="2 6" stroke-linecap="round"/>
<rect x="676" y="386" width="520" height="160" rx="18" fill="#FDFDFC" filter="url(#soft)"/><rect x="676.5" y="386.5" width="519" height="159" rx="17.5" fill="none" stroke="#000000" stroke-opacity="0.08"/>
<circle cx="706" cy="414" r="5" fill="#000000" fill-opacity="0.16"/>
<circle cx="722" cy="414" r="5" fill="#000000" fill-opacity="0.16"/>
<circle cx="738" cy="414" r="5" fill="#000000" fill-opacity="0.16"/>
<text x="764" y="419" class="s" font-size="13" font-weight="600" letter-spacing="1.4" fill="#2F6965">TYPED WHERE YOUR CURSOR IS</text>
<text x="704" y="470" class="s" font-size="25" font-weight="500" fill="#1F1E1C">I think we should meet at 6</text>
<text x="704" y="506" class="s" font-size="25" font-weight="500" fill="#1F1E1C">if that works.</text>
<rect x="847" y="482" width="2.5" height="31" rx="1.2" fill="#2F6965"/>
<g transform="translate(990 517) scale(0.8)"><path d="M3.5 6.5 V4.8 A3.5 3.5 0 0 1 10.5 4.8 V6.5" fill="none" stroke="#9A968F" stroke-width="1.7"/><rect x="1.5" y="6.5" width="11" height="8.5" rx="2" fill="#9A968F"/></g>
<text x="1006" y="528" class="s" font-size="13" fill="#9A968F">Cleaned up on your Mac</text>
</svg>
